<svg width="1000" height="1000" xmlns="http://www.w3.org/2000/svg" xml:space="preserve" version="1.1">
 <defs>
  <filter id="svg_1_blur">
   <feGaussianBlur stdDeviation="0" in="SourceGraphic"/>
  </filter>
 </defs>
 <g>
  <title>Layer 1</title>
  <path stroke="#e5e5e5" filter="url(#svg_1_blur)" id="svg_1" fill="#ffffff" d="m624.63677,275.72727c-6.41203,0 -11.88886,4.68745 -14.09246,11.30216l-28.12013,0l0,-31.31662l15.40404,0c3.04229,0 5.509,-2.89685 5.509,-6.4708c0,-3.57395 -2.46671,-6.4708 -5.509,-6.4708l-15.40404,0l0,-31.31662l15.40404,0c3.04229,0 5.509,-2.89685 5.509,-6.4708c0,-3.57344 -2.46671,-6.4708 -5.509,-6.4708l-15.40404,0l0,-1.97023c0,-8.57718 -5.91931,-15.52993 -13.2216,-15.52993l-1.89774,0l0,-18.35223c0,-3.57395 -2.46627,-6.4708 -5.509,-6.4708c-3.04273,0 -5.509,2.89685 -5.509,6.4708l0,18.35223l-26.66179,0l0,-32.95503c5.63152,-2.58832 9.62268,-9.02082 9.62268,-16.55283c0,-9.81595 -6.77475,-17.77297 -15.13168,-17.77297c-8.35693,0 -15.13124,7.95754 -15.13124,17.77297c0,7.53202 3.99072,13.96503 9.62224,16.55283l0,32.95503l-26.66179,0l0,-18.35223c0,-3.57395 -2.46671,-6.4708 -5.509,-6.4708c-3.04273,0 -5.509,2.89685 -5.509,6.4708l0,18.35223l-26.66179,0l0,-32.95503c5.63152,-2.58832 9.62224,-9.02082 9.62224,-16.55283c0,-9.81595 -6.77475,-17.77297 -15.13124,-17.77297c-8.35693,0 -15.13124,7.95754 -15.13124,17.77297c0,7.53202 3.99072,13.96503 9.62224,16.55283l0,32.95503l-26.66179,0l0,-18.35223c0,-3.57395 -2.46627,-6.4708 -5.509,-6.4708c-3.04273,0 -5.509,2.89685 -5.509,6.4708l0,18.35223l-1.89774,0c-7.30229,0 -13.2216,6.95275 -13.2216,15.52993l0,1.97023l-15.40404,0c-3.04273,0 -5.509,2.89737 -5.509,6.4708c0,3.57395 2.46627,6.4708 5.509,6.4708l15.40404,0l0,31.31662l-15.40404,0c-3.04273,0 -5.509,2.89685 -5.509,6.4708c0,3.57395 2.46627,6.4708 5.509,6.4708l15.40404,0l0,31.31662l-27.99365,0c-2.20316,-6.61471 -7.67999,-11.30216 -14.09246,-11.30216c-8.35693,0 -15.13124,7.95754 -15.13124,17.77297c0,9.81595 6.77475,17.77297 15.13124,17.77297c6.41203,0 11.8893,-4.68745 14.09246,-11.30216l27.99365,0l0,31.31662l-15.40404,0c-3.04273,0 -5.509,2.89685 -5.509,6.4708c0,3.57395 2.46627,6.4708 5.509,6.4708l15.40404,0l0,31.31662l-15.40404,0c-3.04273,0 -5.509,2.89737 -5.509,6.4708l0,0c0,3.57395 2.46627,6.4708 5.509,6.4708l15.40404,0l0,2.48841c0,8.57718 5.91931,15.52993 13.2216,15.52993l1.89774,0l0,17.83457c0,3.57344 2.46627,6.4708 5.509,6.4708c3.04273,0 5.509,-2.89737 5.509,-6.4708l0,-17.83457l26.66179,0l0,32.43736c-5.63152,2.5878 -9.62224,9.02082 -9.62224,16.55283c0,9.81595 6.77431,17.77297 15.13124,17.77297c8.35693,0 15.13124,-7.95754 15.13124,-17.77297c0,-7.53202 -3.99072,-13.96503 -9.62224,-16.55283l0,-32.43736l26.66179,0l0,17.83457c0,3.57344 2.46627,6.4708 5.509,6.4708c3.04273,0 5.509,-2.89737 5.509,-6.4708l0,-17.83457l26.66179,0l0,32.43736c-5.63152,2.5878 -9.62224,9.02082 -9.62224,16.55283c0,9.81595 6.77475,17.77297 15.13124,17.77297c8.35693,0 15.13168,-7.95754 15.13168,-17.77297c0,-7.53202 -3.99072,-13.96503 -9.62268,-16.55283l0,-32.43736l26.66179,0l0,17.83457c0,3.57344 2.46627,6.4708 5.509,6.4708c3.04273,0 5.509,-2.89737 5.509,-6.4708l0,-17.83457l1.89774,0c7.30229,0 13.2216,-6.95275 13.2216,-15.52993l0,-2.48841l15.40404,0c3.04229,0 5.509,-2.89685 5.509,-6.4708l0,0c0,-3.57344 -2.46671,-6.4708 -5.509,-6.4708l-15.40404,0l0,-31.31662l15.40404,0c3.04229,0 5.509,-2.89685 5.509,-6.4708c0,-3.57395 -2.46671,-6.4708 -5.509,-6.4708l-15.40404,0l0,-31.31662l28.12013,0c2.2036,6.61471 7.67999,11.30216 14.09246,11.30216c8.35693,0 15.13124,-7.95754 15.13124,-17.77297m-162.57849,-79.41902l59.03972,0c3.04229,0 5.509,2.89685 5.509,6.4708c0,3.57395 -2.46671,6.4708 -5.509,6.4708l-59.03972,0c-3.04273,0 -5.509,-2.89685 -5.509,-6.4708c0,-3.57395 2.46671,-6.4708 5.509,-6.4708zm35.65865,62.67206c-2.15159,-2.52724 -2.15159,-6.62403 0,-9.15127c2.15159,-2.52724 5.63945,-2.52724 7.79061,0l18.59441,21.84026c2.15115,2.52724 2.15115,6.62403 0,9.15127l-18.59441,21.84077c-2.15115,2.52672 -5.63945,2.52672 -7.79061,0c-2.15159,-2.52724 -2.15159,-6.62403 0,-9.15127l14.69889,-17.26514l-14.69889,-17.26462zm-76.20488,-62.67206l18.19997,0c3.04273,0 5.509,2.89685 5.509,6.4708c0,3.57395 -2.46627,6.4708 -5.509,6.4708l-18.19997,0c-3.04273,0 -5.509,-2.89685 -5.509,-6.4708c0,-3.57395 2.46671,-6.4708 5.509,-6.4708zm-26.74509,-16.05795c3.04273,0 5.509,2.89737 5.509,6.4708c0,3.57395 -2.46627,6.4708 -5.509,6.4708c-3.04273,0 -5.509,-2.89685 -5.509,-6.4708c0,-3.57344 2.46627,-6.4708 5.509,-6.4708zm0,178.52999c3.04273,0 5.509,2.89737 5.509,6.4708c0,3.57395 -2.46627,6.4708 -5.509,6.4708c-3.04273,0 -5.509,-2.89685 -5.509,-6.4708c0,-3.57344 2.46627,-6.4708 5.509,-6.4708zm15.77292,-54.22378l-12.11363,0c-3.04273,0 -5.509,-2.89685 -5.509,-6.4708c0,-3.57395 2.46627,-6.4708 5.509,-6.4708l12.11363,0c3.04273,0 5.509,2.89685 5.509,6.4708c0,3.57395 -2.46627,6.4708 -5.509,6.4708zm29.17213,51.10796l-18.19997,0c-3.04273,0 -5.509,-2.89685 -5.509,-6.4708c0,-3.57395 2.46627,-6.4708 5.509,-6.4708l18.19997,0c3.04273,0 5.509,2.89685 5.509,6.4708c0,3.57344 -2.46627,6.4708 -5.509,6.4708zm5.18154,-62.1544c2.15159,2.52672 2.15159,6.62403 0,9.15127c-2.15159,2.52672 -5.63945,2.52672 -7.79061,0l-18.59441,-21.84077c-2.15115,-2.52672 -2.15115,-6.62403 0,-9.15127l18.59441,-21.84026c2.15115,-2.52724 5.63945,-2.52724 7.79061,0c2.15159,2.52672 2.15159,6.62403 0,9.15127l-14.69845,17.26462l14.69845,17.26514zm11.93161,13.6358l18.49657,-65.85673c0.95328,-3.39381 4.06829,-5.23721 6.95765,-4.11802c2.88936,1.11971 4.45876,4.77856 3.50593,8.17237l-18.49657,65.85673c-0.95328,3.39381 -4.06829,5.23721 -6.95765,4.11802c-2.88936,-1.11919 -4.45876,-4.77856 -3.50593,-8.17237zm64.27327,48.5186l-59.04016,0c-3.04273,0 -5.509,-2.89685 -5.509,-6.4708c0,-3.57395 2.46627,-6.4708 5.509,-6.4708l59.03972,0c3.04229,0 5.509,2.89685 5.509,6.4708c0.00044,3.57344 -2.46627,6.4708 -5.50856,6.4708zm5.46316,-57.57876c0,-3.57395 2.46627,-6.4708 5.509,-6.4708l12.11363,0c3.04273,0 5.509,2.89685 5.509,6.4708c0,3.57395 -2.46627,6.4708 -5.509,6.4708l-12.11363,0c-3.04273,0 -5.509,-2.89685 -5.509,-6.4708zm21.28192,73.63619c-3.04273,0 -5.509,-2.89685 -5.509,-6.4708c0,-3.57344 2.46627,-6.4708 5.509,-6.4708c3.04273,0 5.509,2.89737 5.509,6.4708c0,3.57395 -2.46627,6.4708 -5.509,6.4708zm0,-178.52999c-3.04273,0 -5.509,-2.89685 -5.509,-6.4708c0,-3.57344 2.46627,-6.4708 5.509,-6.4708c3.04273,0 5.509,2.89737 5.509,6.4708c0,3.57395 -2.46627,6.4708 -5.509,6.4708z"/>
  <polyline stroke-linecap="round" id="svg_5" points="563,248.5 563,248.5 " stroke-width="0" stroke="#e5e5e5" fill="none"/>
  <text xml:space="preserve" text-anchor="start" font-family="'Azeret Mono'" font-size="24" id="svg_7" y="295.5" x="588" stroke-width="0" stroke="#e5e5e5" fill="#000000"/>
 </g>
</svg>