<svg width="320" height="320" xmlns="http://www.w3.org/2000/svg" version="1.1" xml:space="preserve">
 <defs>
  <filter id="svg_1_blur">
   <feGaussianBlur in="SourceGraphic" stdDeviation="0"/>
  </filter>
 </defs>
 <g>
  <title>Layer 1</title>
  <path d="m617.40578,388.99528c-6.41203,0 -11.88886,4.68745 -14.09246,11.30216l-28.12013,0l0,-31.31662l15.40404,0c3.04229,0 5.509,-2.89685 5.509,-6.4708c0,-3.57395 -2.46671,-6.4708 -5.509,-6.4708l-15.40404,0l0,-31.31662l15.40404,0c3.04229,0 5.509,-2.89685 5.509,-6.4708c0,-3.57344 -2.46671,-6.4708 -5.509,-6.4708l-15.40404,0l0,-1.97023c0,-8.57718 -5.91931,-15.52993 -13.2216,-15.52993l-1.89774,0l0,-18.35223c0,-3.57395 -2.46627,-6.4708 -5.509,-6.4708c-3.04273,0 -5.509,2.89685 -5.509,6.4708l0,18.35223l-26.66179,0l0,-32.95503c5.63152,-2.58832 9.62268,-9.02082 9.62268,-16.55283c0,-9.81595 -6.77475,-17.77297 -15.13168,-17.77297c-8.35693,0 -15.13124,7.95754 -15.13124,17.77297c0,7.53202 3.99072,13.96503 9.62224,16.55283l0,32.95503l-26.66179,0l0,-18.35223c0,-3.57395 -2.46671,-6.4708 -5.509,-6.4708c-3.04273,0 -5.509,2.89685 -5.509,6.4708l0,18.35223l-26.66179,0l0,-32.95503c5.63152,-2.58832 9.62224,-9.02082 9.62224,-16.55283c0,-9.81595 -6.77475,-17.77297 -15.13124,-17.77297c-8.35693,0 -15.13124,7.95754 -15.13124,17.77297c0,7.53202 3.99072,13.96503 9.62224,16.55283l0,32.95503l-26.66179,0l0,-18.35223c0,-3.57395 -2.46627,-6.4708 -5.509,-6.4708c-3.04273,0 -5.509,2.89685 -5.509,6.4708l0,18.35223l-1.89774,0c-7.30229,0 -13.2216,6.95275 -13.2216,15.52993l0,1.97023l-15.40404,0c-3.04273,0 -5.509,2.89737 -5.509,6.4708c0,3.57395 2.46627,6.4708 5.509,6.4708l15.40404,0l0,31.31662l-15.40404,0c-3.04273,0 -5.509,2.89685 -5.509,6.4708c0,3.57395 2.46627,6.4708 5.509,6.4708l15.40404,0l0,31.31662l-27.99365,0c-2.20316,-6.61471 -7.67999,-11.30216 -14.09246,-11.30216c-8.35693,0 -15.13124,7.95754 -15.13124,17.77297c0,9.81595 6.77475,17.77297 15.13124,17.77297c6.41203,0 11.8893,-4.68745 14.09246,-11.30216l27.99365,0l0,31.31662l-15.40404,0c-3.04273,0 -5.509,2.89685 -5.509,6.4708c0,3.57395 2.46627,6.4708 5.509,6.4708l15.40404,0l0,31.31662l-15.40404,0c-3.04273,0 -5.509,2.89737 -5.509,6.4708l0,0c0,3.57395 2.46627,6.4708 5.509,6.4708l15.40404,0l0,2.48841c0,8.57718 5.91931,15.52993 13.2216,15.52993l1.89774,0l0,17.83457c0,3.57344 2.46627,6.4708 5.509,6.4708c3.04273,0 5.509,-2.89737 5.509,-6.4708l0,-17.83457l26.66179,0l0,32.43736c-5.63152,2.5878 -9.62224,9.02082 -9.62224,16.55283c0,9.81595 6.77431,17.77297 15.13124,17.77297c8.35693,0 15.13124,-7.95754 15.13124,-17.77297c0,-7.53202 -3.99072,-13.96503 -9.62224,-16.55283l0,-32.43736l26.66179,0l0,17.83457c0,3.57344 2.46627,6.4708 5.509,6.4708c3.04273,0 5.509,-2.89737 5.509,-6.4708l0,-17.83457l26.66179,0l0,32.43736c-5.63152,2.5878 -9.62224,9.02082 -9.62224,16.55283c0,9.81595 6.77475,17.77297 15.13124,17.77297c8.35693,0 15.13168,-7.95754 15.13168,-17.77297c0,-7.53202 -3.99072,-13.96503 -9.62268,-16.55283l0,-32.43736l26.66179,0l0,17.83457c0,3.57344 2.46627,6.4708 5.509,6.4708c3.04273,0 5.509,-2.89737 5.509,-6.4708l0,-17.83457l1.89774,0c7.30229,0 13.2216,-6.95275 13.2216,-15.52993l0,-2.48841l15.40404,0c3.04229,0 5.509,-2.89685 5.509,-6.4708l0,0c0,-3.57344 -2.46671,-6.4708 -5.509,-6.4708l-15.40404,0l0,-31.31662l15.40404,0c3.04229,0 5.509,-2.89685 5.509,-6.4708c0,-3.57395 -2.46671,-6.4708 -5.509,-6.4708l-15.40404,0l0,-31.31662l28.12013,0c2.2036,6.61471 7.67999,11.30216 14.09246,11.30216c8.35693,0 15.13124,-7.95754 15.13124,-17.77297m-162.57849,-79.41902l59.03972,0c3.04229,0 5.509,2.89685 5.509,6.4708c0,3.57395 -2.46671,6.4708 -5.509,6.4708l-59.03972,0c-3.04273,0 -5.509,-2.89685 -5.509,-6.4708c0,-3.57395 2.46671,-6.4708 5.509,-6.4708zm35.65865,62.67206c-2.15159,-2.52724 -2.15159,-6.62403 0,-9.15127c2.15159,-2.52724 5.63945,-2.52724 7.79061,0l18.59441,21.84026c2.15115,2.52724 2.15115,6.62403 0,9.15127l-18.59441,21.84077c-2.15115,2.52672 -5.63945,2.52672 -7.79061,0c-2.15159,-2.52724 -2.15159,-6.62403 0,-9.15127l14.69889,-17.26514l-14.69889,-17.26462zm-76.20488,-62.67206l18.19997,0c3.04273,0 5.509,2.89685 5.509,6.4708c0,3.57395 -2.46627,6.4708 -5.509,6.4708l-18.19997,0c-3.04273,0 -5.509,-2.89685 -5.509,-6.4708c0,-3.57395 2.46671,-6.4708 5.509,-6.4708zm-26.74509,-16.05795c3.04273,0 5.509,2.89737 5.509,6.4708c0,3.57395 -2.46627,6.4708 -5.509,6.4708c-3.04273,0 -5.509,-2.89685 -5.509,-6.4708c0,-3.57344 2.46627,-6.4708 5.509,-6.4708zm0,178.52999c3.04273,0 5.509,2.89737 5.509,6.4708c0,3.57395 -2.46627,6.4708 -5.509,6.4708c-3.04273,0 -5.509,-2.89685 -5.509,-6.4708c0,-3.57344 2.46627,-6.4708 5.509,-6.4708zm15.77292,-54.22378l-12.11363,0c-3.04273,0 -5.509,-2.89685 -5.509,-6.4708c0,-3.57395 2.46627,-6.4708 5.509,-6.4708l12.11363,0c3.04273,0 5.509,2.89685 5.509,6.4708c0,3.57395 -2.46627,6.4708 -5.509,6.4708zm29.17213,51.10796l-18.19997,0c-3.04273,0 -5.509,-2.89685 -5.509,-6.4708c0,-3.57395 2.46627,-6.4708 5.509,-6.4708l18.19997,0c3.04273,0 5.509,2.89685 5.509,6.4708c0,3.57344 -2.46627,6.4708 -5.509,6.4708zm5.18154,-62.1544c2.15159,2.52672 2.15159,6.62403 0,9.15127c-2.15159,2.52672 -5.63945,2.52672 -7.79061,0l-18.59441,-21.84077c-2.15115,-2.52672 -2.15115,-6.62403 0,-9.15127l18.59441,-21.84026c2.15115,-2.52724 5.63945,-2.52724 7.79061,0c2.15159,2.52672 2.15159,6.62403 0,9.15127l-14.69845,17.26462l14.69845,17.26514zm11.93161,13.6358l18.49657,-65.85673c0.95328,-3.39381 4.06829,-5.23721 6.95765,-4.11802c2.88936,1.11971 4.45876,4.77856 3.50593,8.17237l-18.49657,65.85673c-0.95328,3.39381 -4.06829,5.23721 -6.95765,4.11802c-2.88936,-1.11919 -4.45876,-4.77856 -3.50593,-8.17237zm64.27327,48.5186l-59.04016,0c-3.04273,0 -5.509,-2.89685 -5.509,-6.4708c0,-3.57395 2.46627,-6.4708 5.509,-6.4708l59.03972,0c3.04229,0 5.509,2.89685 5.509,6.4708c0.00044,3.57344 -2.46627,6.4708 -5.50856,6.4708zm5.46316,-57.57876c0,-3.57395 2.46627,-6.4708 5.509,-6.4708l12.11363,0c3.04273,0 5.509,2.89685 5.509,6.4708c0,3.57395 -2.46627,6.4708 -5.509,6.4708l-12.11363,0c-3.04273,0 -5.509,-2.89685 -5.509,-6.4708zm21.28192,73.63619c-3.04273,0 -5.509,-2.89685 -5.509,-6.4708c0,-3.57344 2.46627,-6.4708 5.509,-6.4708c3.04273,0 5.509,2.89737 5.509,6.4708c0,3.57395 -2.46627,6.4708 -5.509,6.4708zm0,-178.52999c-3.04273,0 -5.509,-2.89685 -5.509,-6.4708c0,-3.57344 2.46627,-6.4708 5.509,-6.4708c3.04273,0 5.509,2.89737 5.509,6.4708c0,3.57395 -2.46627,6.4708 -5.509,6.4708z" fill="#ffffff" id="svg_1" filter="url(#svg_1_blur)" stroke="#e5e5e5"/>
  <polyline fill="none" stroke="#e5e5e5" stroke-width="0" points="563,248.5 563,248.5 " id="svg_5" stroke-linecap="round"/>
  <text fill="#000000" stroke="#e5e5e5" stroke-width="0" x="588" y="295.5" id="svg_7" font-size="24" font-family="'Azeret Mono'" text-anchor="start" xml:space="preserve"/>
  <g stroke="null">
   <defs stroke="null" transform="translate(0.268522 0) translate(-326.5 0) translate(0 -133.5) translate(7 339.768) scale(0.931493 0.866495) translate(-7 -339.768) translate(7.51482 32.5813) scale(1.08055 0.913333) translate(-7.51482 -32.5813) translate(313.492 395.21) scale(1.01621 1.09841) translate(-313.492 -395.21) translate(1.95534 0.266331) scale(1.01595 1.0256) translate(-1.95534 -0.266331)">
    <filter stroke="null" id="svg_8">
     <feGaussianBlur stroke="null" in="SourceGraphic" stdDeviation="0"/>
    </filter>
   </defs>
   <g stroke="null">
    <title stroke="null">Layer 1</title>
    <path stroke="#e5e5e5" d="m304.81345,144.6547c-6.66304,0 -12.35427,4.17899 -14.64414,10.07618l-29.22095,0l0,-27.91962l16.00706,0c3.16139,0 5.72466,-2.58262 5.72466,-5.76889c0,-3.18627 -2.56327,-5.76889 -5.72466,-5.76889l-16.00706,0l0,-27.91962l16.00706,0c3.16139,0 5.72466,-2.58262 5.72466,-5.76889c0,-3.18582 -2.56327,-5.76889 -5.72466,-5.76889l-16.00706,0l0,-1.75651c0,-7.64679 -6.15103,-13.84535 -13.73919,-13.84535l-1.97203,0l0,-16.36151c0,-3.18627 -2.56282,-5.76889 -5.72466,-5.76889c-3.16184,0 -5.72466,2.58262 -5.72466,5.76889l0,16.36151l-27.70552,0l0,-29.3803c5.85198,-2.30756 9.99938,-8.04231 9.99938,-14.7573c0,-8.75119 -7.03996,-15.84509 -15.72404,-15.84509c-8.68408,0 -15.72358,7.09436 -15.72358,15.84509c0,6.715 4.14694,12.4502 9.99892,14.7573l0,29.3803l-27.70552,0l0,-16.36151c0,-3.18627 -2.56327,-5.76889 -5.72466,-5.76889c-3.16184,0 -5.72466,2.58262 -5.72466,5.76889l0,16.36151l-27.70552,0l0,-29.3803c5.85198,-2.30756 9.99892,-8.04231 9.99892,-14.7573c0,-8.75119 -7.03996,-15.84509 -15.72358,-15.84509c-8.68408,0 -15.72358,7.09436 -15.72358,15.84509c0,6.715 4.14694,12.4502 9.99892,14.7573l0,29.3803l-27.70552,0l0,-16.36151c0,-3.18627 -2.56282,-5.76889 -5.72466,-5.76889c-3.16184,0 -5.72466,2.58262 -5.72466,5.76889l0,16.36151l-1.97203,0c-7.58815,0 -13.73919,6.19857 -13.73919,13.84535l0,1.75651l-16.00706,0c-3.16184,0 -5.72466,2.58308 -5.72466,5.76889c0,3.18627 2.56282,5.76889 5.72466,5.76889l16.00706,0l0,27.91962l-16.00706,0c-3.16184,0 -5.72466,2.58262 -5.72466,5.76889c0,3.18627 2.56282,5.76889 5.72466,5.76889l16.00706,0l0,27.91962l-29.08952,0c-2.28941,-5.89719 -7.98064,-10.07618 -14.64414,-10.07618c-8.68408,0 -15.72358,7.09436 -15.72358,15.84509c0,8.75119 7.03996,15.84509 15.72358,15.84509c6.66304,0 12.35473,-4.17899 14.64414,-10.07618l29.08952,0l0,27.91962l-16.00706,0c-3.16184,0 -5.72466,2.58262 -5.72466,5.76889c0,3.18627 2.56282,5.76889 5.72466,5.76889l16.00706,0l0,27.91962l-16.00706,0c-3.16184,0 -5.72466,2.58308 -5.72466,5.76889l0,0c0,3.18627 2.56282,5.76889 5.72466,5.76889l16.00706,0l0,2.21849c0,7.64679 6.15103,13.84535 13.73919,13.84535l1.97203,0l0,15.9c0,3.18582 2.56282,5.76889 5.72466,5.76889c3.16184,0 5.72466,-2.58308 5.72466,-5.76889l0,-15.9l27.70552,0l0,28.91879c-5.85198,2.30709 -9.99892,8.04231 -9.99892,14.7573c0,8.75119 7.0395,15.84509 15.72358,15.84509c8.68408,0 15.72358,-7.09436 15.72358,-15.84509c0,-6.715 -4.14694,-12.4502 -9.99892,-14.7573l0,-28.91879l27.70552,0l0,15.9c0,3.18582 2.56282,5.76889 5.72466,5.76889c3.16184,0 5.72466,-2.58308 5.72466,-5.76889l0,-15.9l27.70552,0l0,28.91879c-5.85198,2.30709 -9.99892,8.04231 -9.99892,14.7573c0,8.75119 7.03996,15.84509 15.72358,15.84509c8.68408,0 15.72404,-7.09436 15.72404,-15.84509c0,-6.715 -4.14694,-12.4502 -9.99938,-14.7573l0,-28.91879l27.70552,0l0,15.9c0,3.18582 2.56282,5.76889 5.72466,5.76889c3.16184,0 5.72466,-2.58308 5.72466,-5.76889l0,-15.9l1.97203,0c7.58815,0 13.73919,-6.19857 13.73919,-13.84535l0,-2.21849l16.00706,0c3.16139,0 5.72466,-2.58262 5.72466,-5.76889l0,0c0,-3.18582 -2.56327,-5.76889 -5.72466,-5.76889l-16.00706,0l0,-27.91962l16.00706,0c3.16139,0 5.72466,-2.58262 5.72466,-5.76889c0,-3.18627 -2.56327,-5.76889 -5.72466,-5.76889l-16.00706,0l0,-27.91962l29.22095,0c2.28986,5.89719 7.98064,10.07618 14.64414,10.07618c8.68408,0 15.72358,-7.09436 15.72358,-15.84509m-168.94296,-70.80421l61.35095,0c3.16139,0 5.72466,2.58262 5.72466,5.76889c0,3.18627 -2.56327,5.76889 -5.72466,5.76889l-61.35095,0c-3.16184,0 -5.72466,-2.58262 -5.72466,-5.76889c0,-3.18627 2.56327,-5.76889 5.72466,-5.76889zm37.05458,55.87384c-2.23582,-2.2531 -2.23582,-5.9055 0,-8.15861c2.23582,-2.2531 5.86022,-2.2531 8.09559,0l19.32233,19.47119c2.23536,2.2531 2.23536,5.9055 0,8.15861l-19.32233,19.47164c-2.23536,2.25264 -5.86022,2.25264 -8.09559,0c-2.23582,-2.2531 -2.23582,-5.9055 0,-8.15861l15.27431,-15.39234l-15.27431,-15.39188zm-79.18808,-55.87384l18.91245,0c3.16184,0 5.72466,2.58262 5.72466,5.76889c0,3.18627 -2.56282,5.76889 -5.72466,5.76889l-18.91245,0c-3.16184,0 -5.72466,-2.58262 -5.72466,-5.76889c0,-3.18627 2.56327,-5.76889 5.72466,-5.76889zm-27.79208,-14.3161c3.16184,0 5.72466,2.58308 5.72466,5.76889c0,3.18627 -2.56282,5.76889 -5.72466,5.76889c-3.16184,0 -5.72466,-2.58262 -5.72466,-5.76889c0,-3.18582 2.56282,-5.76889 5.72466,-5.76889zm0,159.16434c3.16184,0 5.72466,2.58308 5.72466,5.76889c0,3.18627 -2.56282,5.76889 -5.72466,5.76889c-3.16184,0 -5.72466,-2.58262 -5.72466,-5.76889c0,-3.18582 2.56282,-5.76889 5.72466,-5.76889zm16.39038,-48.34197l-12.58784,0c-3.16184,0 -5.72466,-2.58262 -5.72466,-5.76889c0,-3.18627 2.56282,-5.76889 5.72466,-5.76889l12.58784,0c3.16184,0 5.72466,2.58262 5.72466,5.76889c0,3.18627 -2.56282,5.76889 -5.72466,5.76889zm30.31413,45.56413l-18.91245,0c-3.16184,0 -5.72466,-2.58262 -5.72466,-5.76889c0,-3.18627 2.56282,-5.76889 5.72466,-5.76889l18.91245,0c3.16184,0 5.72466,2.58262 5.72466,5.76889c0,3.18582 -2.56282,5.76889 -5.72466,5.76889zm5.38438,-55.41234c2.23582,2.25264 2.23582,5.9055 0,8.15861c-2.23582,2.25264 -5.86022,2.25264 -8.09559,0l-19.32233,-19.47164c-2.23536,-2.25264 -2.23536,-5.9055 0,-8.15861l19.32233,-19.47119c2.23536,-2.2531 5.86022,-2.2531 8.09559,0c2.23582,2.25264 2.23582,5.9055 0,8.15861l-15.27385,15.39188l15.27385,15.39234zm12.3987,12.15669l19.22066,-58.71306c0.9906,-3.02567 4.22755,-4.66911 7.23002,-3.67133c3.00247,0.99825 4.63331,4.26022 3.64318,7.28589l-19.22066,58.71306c-0.9906,3.02567 -4.22755,4.66911 -7.23002,3.67133c-3.00247,-0.99779 -4.63331,-4.26022 -3.64318,-7.28589zm66.78938,43.25565l-61.35141,0c-3.16184,0 -5.72466,-2.58262 -5.72466,-5.76889c0,-3.18627 2.56282,-5.76889 5.72466,-5.76889l61.35095,0c3.16139,0 5.72466,2.58262 5.72466,5.76889c0.00046,3.18582 -2.56282,5.76889 -5.7242,5.76889zm5.67703,-51.33303c0,-3.18627 2.56282,-5.76889 5.72466,-5.76889l12.58784,0c3.16184,0 5.72466,2.58262 5.72466,5.76889c0,3.18627 -2.56282,5.76889 -5.72466,5.76889l-12.58784,0c-3.16184,0 -5.72466,-2.58262 -5.72466,-5.76889zm22.11504,65.64866c-3.16184,0 -5.72466,-2.58262 -5.72466,-5.76889c0,-3.18582 2.56282,-5.76889 5.72466,-5.76889c3.16184,0 5.72466,2.58308 5.72466,5.76889c0,3.18627 -2.56282,5.76889 -5.72466,5.76889zm0,-159.16434c-3.16184,0 -5.72466,-2.58262 -5.72466,-5.76889c0,-3.18582 2.56282,-5.76889 5.72466,-5.76889c3.16184,0 5.72466,2.58308 5.72466,5.76889c0,3.18627 -2.56282,5.76889 -5.72466,5.76889z" fill="#ffffff" id="svg_6" filter="url(#svg_8)"/>
    <polyline stroke="#e5e5e5" fill="none" stroke-width="0" points="240.76378473097762,120.38084291212532 240.76378473097762,120.38084291212532 " id="svg_4" stroke-linecap="round"/>
    <text stroke="#e5e5e5" transform="matrix(1.03915 0 0 0.891527 -5.27404 17.8557)" fill="#000000" stroke-width="0" x="261.76901" y="161.99951" id="svg_3" font-size="24" font-family="'Azeret Mono'" text-anchor="start" xml:space="preserve"/>
   </g>
  </g>
 </g>
</svg>