<svg width="1543" height="320" xmlns="http://www.w3.org/2000/svg" version="1.1" xml:space="preserve">
 <defs>
  <filter id="svg_1_blur">
   <feGaussianBlur in="SourceGraphic" stdDeviation="0"/>
  </filter>
 </defs>
 <g>
  <title>Layer 1</title>
  <path d="m429.30232,146.45179c-5.28248,0 -9.7945,4.10076 -11.60991,9.88757l-23.16645,0l0,-27.397l12.69044,0c2.50636,0 4.53853,-2.53428 4.53853,-5.66091c0,-3.12663 -2.03217,-5.66091 -4.53853,-5.66091l-12.69044,0l0,-27.397l12.69044,0c2.50636,0 4.53853,-2.53428 4.53853,-5.66091c0,-3.12618 -2.03217,-5.66091 -4.53853,-5.66091l-12.69044,0l0,-1.72363c0,-7.50365 -4.87656,-13.58619 -10.89246,-13.58619l-1.56343,0l0,-16.05525c0,-3.12663 -2.03181,-5.66091 -4.53853,-5.66091c-2.50672,0 -4.53853,2.53428 -4.53853,5.66091l0,16.05525l-21.96501,0l0,-28.83035c4.63946,-2.26436 7.92754,-7.89177 7.92754,-14.48106c0,-8.58738 -5.5813,-15.54849 -12.46606,-15.54849c-6.88476,0 -12.4657,6.96157 -12.4657,15.54849c0,6.5893 3.28771,12.21715 7.92717,14.48106l0,28.83035l-21.96501,0l0,-16.05525c0,-3.12663 -2.03217,-5.66091 -4.53853,-5.66091c-2.50672,0 -4.53853,2.53428 -4.53853,5.66091l0,16.05525l-21.96501,0l0,-28.83035c4.63946,-2.26436 7.92717,-7.89177 7.92717,-14.48106c0,-8.58738 -5.5813,-15.54849 -12.4657,-15.54849c-6.88476,0 -12.4657,6.96157 -12.4657,15.54849c0,6.5893 3.28771,12.21715 7.92717,14.48106l0,28.83035l-21.96501,0l0,-16.05525c0,-3.12663 -2.03181,-5.66091 -4.53853,-5.66091c-2.50672,0 -4.53853,2.53428 -4.53853,5.66091l0,16.05525l-1.56343,0c-6.01591,0 -10.89246,6.08254 -10.89246,13.58619l0,1.72363l-12.69044,0c-2.50672,0 -4.53853,2.53473 -4.53853,5.66091c0,3.12663 2.03181,5.66091 4.53853,5.66091l12.69044,0l0,27.397l-12.69044,0c-2.50672,0 -4.53853,2.53428 -4.53853,5.66091c0,3.12663 2.03181,5.66091 4.53853,5.66091l12.69044,0l0,27.397l-23.06225,0c-1.81505,-5.78681 -6.32707,-9.88757 -11.60991,-9.88757c-6.88476,0 -12.4657,6.96157 -12.4657,15.54849c0,8.58738 5.5813,15.54849 12.4657,15.54849c5.28248,0 9.79486,-4.10076 11.60991,-9.88757l23.06225,0l0,27.397l-12.69044,0c-2.50672,0 -4.53853,2.53428 -4.53853,5.66091c0,3.12663 2.03181,5.66091 4.53853,5.66091l12.69044,0l0,27.397l-12.69044,0c-2.50672,0 -4.53853,2.53473 -4.53853,5.66091l0,0c0,3.12663 2.03181,5.66091 4.53853,5.66091l12.69044,0l0,2.17696c0,7.50365 4.87656,13.58619 10.89246,13.58619l1.56343,0l0,15.60238c0,3.12618 2.03181,5.66091 4.53853,5.66091c2.50672,0 4.53853,-2.53473 4.53853,-5.66091l0,-15.60238l21.96501,0l0,28.37747c-4.63946,2.26391 -7.92717,7.89177 -7.92717,14.48106c0,8.58738 5.58094,15.54849 12.4657,15.54849c6.88476,0 12.4657,-6.96157 12.4657,-15.54849c0,-6.5893 -3.28771,-12.21715 -7.92717,-14.48106l0,-28.37747l21.96501,0l0,15.60238c0,3.12618 2.03181,5.66091 4.53853,5.66091c2.50672,0 4.53853,-2.53473 4.53853,-5.66091l0,-15.60238l21.96501,0l0,28.37747c-4.63946,2.26391 -7.92717,7.89177 -7.92717,14.48106c0,8.58738 5.5813,15.54849 12.4657,15.54849c6.88476,0 12.46606,-6.96157 12.46606,-15.54849c0,-6.5893 -3.28771,-12.21715 -7.92754,-14.48106l0,-28.37747l21.96501,0l0,15.60238c0,3.12618 2.03181,5.66091 4.53853,5.66091c2.50672,0 4.53853,-2.53473 4.53853,-5.66091l0,-15.60238l1.56343,0c6.01591,0 10.89246,-6.08254 10.89246,-13.58619l0,-2.17696l12.69044,0c2.50636,0 4.53853,-2.53428 4.53853,-5.66091l0,0c0,-3.12618 -2.03217,-5.66091 -4.53853,-5.66091l-12.69044,0l0,-27.397l12.69044,0c2.50636,0 4.53853,-2.53428 4.53853,-5.66091c0,-3.12663 -2.03217,-5.66091 -4.53853,-5.66091l-12.69044,0l0,-27.397l23.16645,0c1.81541,5.78681 6.32707,9.88757 11.60991,9.88757c6.88476,0 12.4657,-6.96157 12.4657,-15.54849m-133.93843,-69.47886l48.6392,0c2.50636,0 4.53853,2.53428 4.53853,5.66091c0,3.12663 -2.03217,5.66091 -4.53853,5.66091l-48.6392,0c-2.50672,0 -4.53853,-2.53428 -4.53853,-5.66091c0,-3.12663 2.03217,-5.66091 4.53853,-5.66091zm29.37697,54.82796c-1.77256,-2.21093 -1.77256,-5.79496 0,-8.00589c1.77256,-2.21093 4.646,-2.21093 6.41821,0l15.31879,19.10671c1.7722,2.21093 1.7722,5.79496 0,8.00589l-15.31879,19.10716c-1.7722,2.21047 -4.646,2.21047 -6.41821,0c-1.77256,-2.21093 -1.77256,-5.79496 0,-8.00589l12.10951,-15.10422l-12.10951,-15.10376zm-62.78052,-54.82796l14.99384,0c2.50672,0 4.53853,2.53428 4.53853,5.66091c0,3.12663 -2.03181,5.66091 -4.53853,5.66091l-14.99384,0c-2.50672,0 -4.53853,-2.53428 -4.53853,-5.66091c0,-3.12663 2.03217,-5.66091 4.53853,-5.66091zm-22.03364,-14.04812c2.50672,0 4.53853,2.53473 4.53853,5.66091c0,3.12663 -2.03181,5.66091 -4.53853,5.66091c-2.50672,0 -4.53853,-2.53428 -4.53853,-5.66091c0,-3.12618 2.03181,-5.66091 4.53853,-5.66091zm0,156.185c2.50672,0 4.53853,2.53473 4.53853,5.66091c0,3.12663 -2.03181,5.66091 -4.53853,5.66091c-2.50672,0 -4.53853,-2.53428 -4.53853,-5.66091c0,-3.12618 2.03181,-5.66091 4.53853,-5.66091zm12.99434,-47.43708l-9.97968,0c-2.50672,0 -4.53853,-2.53428 -4.53853,-5.66091c0,-3.12663 2.03181,-5.66091 4.53853,-5.66091l9.97968,0c2.50672,0 4.53853,2.53428 4.53853,5.66091c0,3.12663 -2.03181,5.66091 -4.53853,5.66091zm24.03313,44.71124l-14.99384,0c-2.50672,0 -4.53853,-2.53428 -4.53853,-5.66091c0,-3.12663 2.03181,-5.66091 4.53853,-5.66091l14.99384,0c2.50672,0 4.53853,2.53428 4.53853,5.66091c0,3.12618 -2.03181,5.66091 -4.53853,5.66091zm4.26875,-54.37509c1.77256,2.21047 1.77256,5.79496 0,8.00589c-1.77256,2.21047 -4.646,2.21047 -6.41821,0l-15.31879,-19.10716c-1.7722,-2.21047 -1.7722,-5.79496 0,-8.00589l15.31879,-19.10671c1.7722,-2.21093 4.646,-2.21093 6.41821,0c1.77256,2.21047 1.77256,5.79496 0,8.00589l-12.10915,15.10376l12.10915,15.10422zm9.82972,11.92913l15.23819,-57.61404c0.78535,-2.96904 3.35161,-4.58172 5.73198,-3.6026c2.38037,0.97957 3.6733,4.18047 2.88832,7.14951l-15.23819,57.61404c-0.78535,2.96904 -3.35161,4.58172 -5.73198,3.6026c-2.38037,-0.97911 -3.6733,-4.18047 -2.88832,-7.14951zm52.9508,42.44596l-48.63956,0c-2.50672,0 -4.53853,-2.53428 -4.53853,-5.66091c0,-3.12663 2.03181,-5.66091 4.53853,-5.66091l48.6392,0c2.50636,0 4.53853,2.53428 4.53853,5.66091c0.00036,3.12618 -2.03181,5.66091 -4.53816,5.66091l-0.00001,0zm4.50076,-50.37215c0,-3.12663 2.03181,-5.66091 4.53853,-5.66091l9.97968,0c2.50672,0 4.53853,2.53428 4.53853,5.66091c0,3.12663 -2.03181,5.66091 -4.53853,5.66091l-9.97968,0c-2.50672,0 -4.53853,-2.53428 -4.53853,-5.66091zm17.53287,64.41981c-2.50672,0 -4.53853,-2.53428 -4.53853,-5.66091c0,-3.12618 2.03181,-5.66091 4.53853,-5.66091c2.50672,0 4.53853,2.53473 4.53853,5.66091c0,3.12663 -2.03181,5.66091 -4.53853,5.66091zm0,-156.185c-2.50672,0 -4.53853,-2.53428 -4.53853,-5.66091c0,-3.12618 2.03181,-5.66091 4.53853,-5.66091c2.50672,0 4.53853,2.53473 4.53853,5.66091c0,3.12663 -2.03181,5.66091 -4.53853,5.66091z" fill="#ffffff" id="svg_1" filter="url(#svg_1_blur)" stroke="#e5e5e5"/>
  <polyline fill="none" stroke="#e5e5e5" stroke-width="0" points="563,248.5 563,248.5 " id="svg_5" stroke-linecap="round"/>
  <text fill="#000000" stroke="#e5e5e5" stroke-width="0" x="588" y="295.5" id="svg_7" font-size="24" font-family="'Azeret Mono'" text-anchor="start" xml:space="preserve"/>
  <text fill="#ffffff" stroke-width="0" x="462.78554" y="270.41003" id="svg_9" font-size="24" font-family="'Azeret Mono'" text-anchor="start" xml:space="preserve" stroke="#ffffff" transform="matrix(1.77323 0 0 6.76786 -433.059 -1324.47)">AllThingsCloud</text>
  <text font-style="italic" font-weight="bold" transform="matrix(5.50937 0 0 9.3065 -2655.67 -844.951)" stroke="#000" xml:space="preserve" text-anchor="start" font-family="'Arimo'" font-size="24" id="svg_3" y="117.2851" x="563.68491" stroke-width="0" fill="#ffffff">AllThingsCloud</text>
 </g>
</svg>