<svg width="1543" height="320" xmlns="http://www.w3.org/2000/svg" version="1.1" xml:space="preserve">
 <defs>
  <filter id="svg_1_blur">
   <feGaussianBlur in="SourceGraphic" stdDeviation="0"/>
  </filter>
 </defs>
 <g>
  <title>Layer 1</title>
  <path stroke="#e5e5e5" d="m285.17977,141.45179c-6.18194,0 -11.46223,4.10076 -13.58675,9.88757l-27.11105,0l0,-27.397l14.85127,0c2.93312,0 5.31132,-2.53428 5.31132,-5.66091c0,-3.12663 -2.37819,-5.66091 -5.31132,-5.66091l-14.85127,0l0,-27.397l14.85127,0c2.93312,0 5.31132,-2.53428 5.31132,-5.66091c0,-3.12618 -2.37819,-5.66091 -5.31132,-5.66091l-14.85127,0l0,-1.72363c0,-7.50365 -5.7069,-13.58619 -12.74714,-13.58619l-1.82964,0l0,-16.05525c0,-3.12663 -2.37777,-5.66091 -5.31132,-5.66091c-2.93354,0 -5.31132,2.53428 -5.31132,5.66091l0,16.05525l-25.70504,0l0,-28.83035c5.42943,-2.26436 9.27738,-7.89177 9.27738,-14.48106c0,-8.58738 -6.53164,-15.54849 -14.58868,-15.54849c-8.05704,0 -14.58826,6.96157 -14.58826,15.54849c0,6.5893 3.84752,12.21715 9.27695,14.48106l0,28.83035l-25.70504,0l0,-16.05525c0,-3.12663 -2.37819,-5.66091 -5.31132,-5.66091c-2.93354,0 -5.31132,2.53428 -5.31132,5.66091l0,16.05525l-25.70504,0l0,-28.83035c5.42943,-2.26436 9.27695,-7.89177 9.27695,-14.48106c0,-8.58738 -6.53164,-15.54849 -14.58826,-15.54849c-8.05704,0 -14.58826,6.96157 -14.58826,15.54849c0,6.5893 3.84752,12.21715 9.27695,14.48106l0,28.83035l-25.70504,0l0,-16.05525c0,-3.12663 -2.37777,-5.66091 -5.31132,-5.66091c-2.93354,0 -5.31132,2.53428 -5.31132,5.66091l0,16.05525l-1.82964,0c-7.04025,0 -12.74714,6.08254 -12.74714,13.58619l0,1.72363l-14.85127,0c-2.93354,0 -5.31132,2.53473 -5.31132,5.66091c0,3.12663 2.37777,5.66091 5.31132,5.66091l14.85127,0l0,27.397l-14.85127,0c-2.93354,0 -5.31132,2.53428 -5.31132,5.66091c0,3.12663 2.37777,5.66091 5.31132,5.66091l14.85127,0l0,27.397l-26.98911,0c-2.1241,-5.78681 -7.40439,-9.88757 -13.58675,-9.88757c-8.05704,0 -14.58826,6.96157 -14.58826,15.54849c0,8.58738 6.53164,15.54849 14.58826,15.54849c6.18194,0 11.46265,-4.10076 13.58675,-9.88757l26.98911,0l0,27.397l-14.85127,0c-2.93354,0 -5.31132,2.53428 -5.31132,5.66091c0,3.12663 2.37777,5.66091 5.31132,5.66091l14.85127,0l0,27.397l-14.85127,0c-2.93354,0 -5.31132,2.53473 -5.31132,5.66091l0,0c0,3.12663 2.37777,5.66091 5.31132,5.66091l14.85127,0l0,2.17696c0,7.50365 5.7069,13.58619 12.74714,13.58619l1.82964,0l0,15.60238c0,3.12618 2.37777,5.66091 5.31132,5.66091c2.93354,0 5.31132,-2.53473 5.31132,-5.66091l0,-15.60238l25.70504,0l0,28.37747c-5.42943,2.26391 -9.27695,7.89177 -9.27695,14.48106c0,8.58738 6.53122,15.54849 14.58826,15.54849c8.05704,0 14.58826,-6.96157 14.58826,-15.54849c0,-6.5893 -3.84752,-12.21715 -9.27695,-14.48106l0,-28.37747l25.70504,0l0,15.60238c0,3.12618 2.37777,5.66091 5.31132,5.66091c2.93354,0 5.31132,-2.53473 5.31132,-5.66091l0,-15.60238l25.70504,0l0,28.37747c-5.42943,2.26391 -9.27695,7.89177 -9.27695,14.48106c0,8.58738 6.53164,15.54849 14.58826,15.54849c8.05704,0 14.58868,-6.96157 14.58868,-15.54849c0,-6.5893 -3.84752,-12.21715 -9.27738,-14.48106l0,-28.37747l25.70504,0l0,15.60238c0,3.12618 2.37777,5.66091 5.31132,5.66091c2.93354,0 5.31132,-2.53473 5.31132,-5.66091l0,-15.60238l1.82964,0c7.04025,0 12.74714,-6.08254 12.74714,-13.58619l0,-2.17696l14.85127,0c2.93312,0 5.31132,-2.53428 5.31132,-5.66091l0,0c0,-3.12618 -2.37819,-5.66091 -5.31132,-5.66091l-14.85127,0l0,-27.397l14.85127,0c2.93312,0 5.31132,-2.53428 5.31132,-5.66091c0,-3.12663 -2.37819,-5.66091 -5.31132,-5.66091l-14.85127,0l0,-27.397l27.11105,0c2.12452,5.78681 7.40439,9.88757 13.58675,9.88757c8.05704,0 14.58826,-6.96157 14.58826,-15.54849m-156.74441,-69.47886l56.9211,0c2.93312,0 5.31132,2.53428 5.31132,5.66091c0,3.12663 -2.37819,5.66091 -5.31132,5.66091l-56.9211,0c-2.93354,0 -5.31132,-2.53428 -5.31132,-5.66091c0,-3.12663 2.37819,-5.66091 5.31132,-5.66091zm34.37905,54.82796c-2.07438,-2.21093 -2.07438,-5.79496 0,-8.00589c2.07438,-2.21093 5.43708,-2.21093 7.51105,0l17.92715,19.10671c2.07396,2.21093 2.07396,5.79496 0,8.00589l-17.92715,19.10716c-2.07396,2.21047 -5.43708,2.21047 -7.51105,0c-2.07438,-2.21093 -2.07438,-5.79496 0,-8.00589l14.17142,-15.10422l-14.17142,-15.10376zm-73.47029,-54.82796l17.54687,0c2.93354,0 5.31132,2.53428 5.31132,5.66091c0,3.12663 -2.37777,5.66091 -5.31132,5.66091l-17.54687,0c-2.93354,0 -5.31132,-2.53428 -5.31132,-5.66091c0,-3.12663 2.37819,-5.66091 5.31132,-5.66091zm-25.78535,-14.04812c2.93354,0 5.31132,2.53473 5.31132,5.66091c0,3.12663 -2.37777,5.66091 -5.31132,5.66091c-2.93354,0 -5.31132,-2.53428 -5.31132,-5.66091c0,-3.12618 2.37777,-5.66091 5.31132,-5.66091zm0,156.185c2.93354,0 5.31132,2.53473 5.31132,5.66091c0,3.12663 -2.37777,5.66091 -5.31132,5.66091c-2.93354,0 -5.31132,-2.53428 -5.31132,-5.66091c0,-3.12618 2.37777,-5.66091 5.31132,-5.66091zm15.20691,-47.43708l-11.67894,0c-2.93354,0 -5.31132,-2.53428 -5.31132,-5.66091c0,-3.12663 2.37777,-5.66091 5.31132,-5.66091l11.67894,0c2.93354,0 5.31132,2.53428 5.31132,5.66091c0,3.12663 -2.37777,5.66091 -5.31132,5.66091zm28.1253,44.71124l-17.54687,0c-2.93354,0 -5.31132,-2.53428 -5.31132,-5.66091c0,-3.12663 2.37777,-5.66091 5.31132,-5.66091l17.54687,0c2.93354,0 5.31132,2.53428 5.31132,5.66091c0,3.12618 -2.37777,5.66091 -5.31132,5.66091zm4.9956,-54.37509c2.07438,2.21047 2.07438,5.79496 0,8.00589c-2.07438,2.21047 -5.43708,2.21047 -7.51105,0l-17.92715,-19.10716c-2.07396,-2.21047 -2.07396,-5.79496 0,-8.00589l17.92715,-19.10671c2.07396,-2.21093 5.43708,-2.21093 7.51105,0c2.07438,2.21047 2.07438,5.79496 0,8.00589l-14.171,15.10376l14.171,15.10422zm11.50345,11.92913l17.83283,-57.61404c0.91907,-2.96904 3.9223,-4.58172 6.70798,-3.6026c2.78568,0.97957 4.29876,4.18047 3.38012,7.14951l-17.83283,57.61404c-0.91907,2.96904 -3.9223,4.58172 -6.70798,3.6026c-2.78568,-0.97911 -4.29876,-4.18047 -3.38012,-7.14951zm61.96684,42.44596l-56.92152,0c-2.93354,0 -5.31132,-2.53428 -5.31132,-5.66091c0,-3.12663 2.37777,-5.66091 5.31132,-5.66091l56.9211,0c2.93312,0 5.31132,2.53428 5.31132,5.66091c0.00042,3.12618 -2.37777,5.66091 -5.31088,5.66091l-0.00001,0zm5.26711,-50.37215c0,-3.12663 2.37777,-5.66091 5.31132,-5.66091l11.67894,0c2.93354,0 5.31132,2.53428 5.31132,5.66091c0,3.12663 -2.37777,5.66091 -5.31132,5.66091l-11.67894,0c-2.93354,0 -5.31132,-2.53428 -5.31132,-5.66091zm20.51823,64.41981c-2.93354,0 -5.31132,-2.53428 -5.31132,-5.66091c0,-3.12618 2.37777,-5.66091 5.31132,-5.66091c2.93354,0 5.31132,2.53473 5.31132,5.66091c0,3.12663 -2.37777,5.66091 -5.31132,5.66091zm0,-156.185c-2.93354,0 -5.31132,-2.53428 -5.31132,-5.66091c0,-3.12618 2.37777,-5.66091 5.31132,-5.66091c2.93354,0 5.31132,2.53473 5.31132,5.66091c0,3.12663 -2.37777,5.66091 -5.31132,5.66091z" fill="#ffffff" id="svg_1" filter="url(#svg_1_blur)"/>
  <polyline fill="none" stroke="#e5e5e5" stroke-width="0" points="563,248.5 563,248.5 " id="svg_5" stroke-linecap="round"/>
  <text fill="#000000" stroke="#e5e5e5" stroke-width="0" x="588" y="295.5" id="svg_7" font-size="24" font-family="'Azeret Mono'" text-anchor="start" xml:space="preserve"/>
  <text fill="#ffffff" stroke-width="0" x="462.78554" y="270.41003" id="svg_9" font-size="24" font-family="'Azeret Mono'" text-anchor="start" xml:space="preserve" stroke="#ffffff" transform="matrix(1.77323 0 0 6.76786 -433.059 -1324.47)">AllThingsCloud</text>
  <text font-style="italic" font-weight="bold" transform="matrix(6.8866 0 0 10.6417 -3571.32 -995.709)" stroke="#000" xml:space="preserve" text-anchor="start" font-family="'Arimo'" font-size="26" id="svg_3" y="117.2851" x="563.68491" stroke-width="0" fill="#ffffff">AllThingsCloud</text>
 </g>
</svg>